<?xml version="1.0" encoding="UTF-8"?>
<svg id="Calque_2" data-name="Calque 2" xmlns="http://www.w3.org/2000/svg" viewBox="0 0 186.95 111.99">
  <defs>
    <style>
      .cls-1 {
        fill: #fff;
      }
    </style>
  </defs>
  <g id="Calque_1-2" data-name="Calque 1">
    <g>
      <polygon class="cls-1" points="82.52 79.37 82.52 61.2 114.73 61.2 114.73 49.38 82.52 49.38 82.52 32.61 117.66 32.61 117.66 20.49 82.52 20.49 78.88 20.49 68.78 20.49 68.78 91.49 78.88 91.49 82.52 91.49 118.17 91.49 118.17 79.37 82.52 79.37"/>
      <g>
        <polygon class="cls-1" points="186.81 11.8 186.81 0 0 0 0 4.08 0 11.8 0 50.1 0 61.9 11.8 61.9 57.82 61.9 57.82 50.1 11.8 50.1 11.8 11.8 186.81 11.8"/>
        <polygon class="cls-1" points="175.15 50.09 129.13 50.09 129.13 61.89 175.15 61.89 175.15 100.19 .13 100.19 .13 111.99 186.95 111.99 186.95 107.91 186.95 100.19 186.95 61.89 186.95 50.09 175.15 50.09"/>
      </g>
    </g>
  </g>
</svg>