<svg width="46" height="45" viewBox="0 0 46 45" fill="none" xmlns="http://www.w3.org/2000/svg">
<path fill-rule="evenodd" clip-rule="evenodd" d="M28.8731 17.2841C28.8731 23.5162 23.8211 28.5683 17.589 28.5683C11.357 28.5683 6.30487 23.5162 6.30487 17.2841C6.30487 11.0521 11.357 6 17.589 6C23.8211 6 28.8731 11.0521 28.8731 17.2841ZM27.5275 31.4269C24.7162 33.4061 21.2883 34.5683 17.589 34.5683C8.04324 34.5683 0.304871 26.8299 0.304871 17.2841C0.304871 7.73837 8.04324 0 17.589 0C27.1348 0 34.8731 7.73837 34.8731 17.2841C34.8731 20.5978 33.9406 23.6937 32.3237 26.3237L45.7099 39.7099L40.7602 44.6597L27.5275 31.4269Z" fill="#BCBCBC"/>
</svg>
